Coordinates
version=1
nRows=11
nColumns=63
inDegrees=yes

Units are S.I. units (second, meters, Newtons, ...)
If the header above contains a line with 'inDegrees', this indicates whether rotational values are in degrees (yes) or radians (no).

endheader
time	pelvis_tilt	pelvis_list	pelvis_rotation	pelvis_tx	pelvis_ty	pelvis_tz	hip_flexion_r	hip_adduction_r	hip_rotation_r	knee_angle_r	knee_angle_r_beta	ankle_angle_r	subtalar_angle_r	mtp_angle_r	hip_flexion_l	hip_adduction_l	hip_rotation_l	knee_angle_l	knee_angle_l_beta	ankle_angle_l	subtalar_angle_l	mtp_angle_l	L5_S1_Flex_Ext	L5_S1_Lat_Bending	L5_S1_axial_rotation	L4_L5_Flex_Ext	L4_L5_Lat_Bending	L4_L5_axial_rotation	L3_L4_Flex_Ext	L3_L4_Lat_Bending	L3_L4_axial_rotation	L2_L3_Flex_Ext	L2_L3_Lat_Bending	L2_L3_axial_rotation	L1_L2_Flex_Ext	L1_L2_Lat_Bending	L1_L2_axial_rotation	L1_T12_Flex_Ext	L1_T12_Lat_Bending	L1_T12_axial_rotation	Abs_r3	Abs_r2	Abs_r1	Abs_t1	Abs_t2	neck_flexion	neck_bending	neck_rotation	arm_flex_r	arm_add_r	arm_rot_r	elbow_flex_r	pro_sup_r	wrist_flex_r	wrist_dev_r	arm_flex_l	arm_add_l	arm_rot_l	elbow_flex_l	pro_sup_l	wrist_flex_l	wrist_dev_l
      0.00000000	      4.71438144	     -3.81911888	     85.43983607	      0.27184956	      0.94320946	      0.56215348	      4.48590761	      1.44642580	    -15.81560803	     22.75907694	      0.39722083	     54.95480489	     17.59726560	      0.00000000	      3.72156833	     -2.11480926	     -2.19483931	     20.41342006	      0.35628139	     51.71797226	     -3.93258919	      0.00000000	      0.14616106	      0.17672388	     -0.33922102	      0.27143570	      0.23504276	     -0.36042233	      0.24012800	      0.42968645	     -0.36042233	      0.16704747	      0.42968645	     -0.29681839	      0.13572516	      0.36037534	     -0.27561708	      0.08351643	      0.27374529	     -0.25441576	      1.04401380	      1.99913589	     -1.88664554	      0.00000000	      0.00000000	     15.72652886	      1.75423299	     -5.55658790	     12.47829117	     -6.93867054	     62.65917511	     34.91099321	     25.23147953	      1.71023669	      1.86532694	     16.98167735	     -7.32009420	     69.10767591	     39.33992427	     67.47456271	     -2.40838037	      2.17975859
      0.01694915	      4.45057541	     -3.47997543	     84.69579000	      0.27330973	      0.94442557	      0.56176856	      4.11073331	      1.42427552	    -13.99723085	     22.19149456	      0.38731465	     55.65289065	     18.26086799	      0.00000000	      2.94054927	     -1.94054428	     -3.30965576	     19.85844885	      0.34659532	     52.18171067	     -3.11175851	      0.00000000	      0.12825320	      0.10596790	     -0.00993517	      0.23817901	      0.14093731	     -0.01055612	      0.21070718	      0.25765036	     -0.01055612	      0.14658058	      0.25765036	     -0.00869328	      0.11909592	      0.21608975	     -0.00807233	      0.07328388	      0.16414428	     -0.00745138	      0.91609977	      1.19873010	     -0.05525644	      0.00000000	      0.00000000	     14.10582927	      1.31098929	    -10.19863247	     11.24409361	     -6.68203467	     60.04597306	     35.98820449	     19.53550775	      0.89179188	      3.81892762	     17.75216864	     -7.56985357	     71.00629597	     39.09233275	     72.07425828	     -1.02332311	      2.02631180
      0.03389831	      4.28111461	     -3.31116276	     84.03934214	      0.27424607	      0.94498758	      0.56130349	      3.84983282	      1.41219190	    -12.63782428	     21.78301339	      0.38018530	     55.99128165	     18.52215601	      0.00000000	      2.38312374	     -1.87655851	     -4.67824854	     19.43192937	      0.33915115	     52.48858066	     -2.01471507	      0.00000000	      0.11896720	      0.06884919	      0.20240342	      0.22093398	      0.09156943	      0.21505364	      0.19545121	      0.16739993	      0.21505364	      0.13596761	      0.16739993	      0.17710300	      0.11047294	      0.14039727	      0.16445278	      0.06797786	      0.10664740	      0.15180257	      0.84977080	      0.77883584	      1.12570712	      0.00000000	      0.00000000	     13.50757768	      0.85743045	    -13.08761227	     10.54449605	     -6.65765437	     59.01016605	     37.14577133	     14.12007271	      0.21668173	      4.77716550	     18.02305064	     -7.87723286	     71.69401252	     39.23281141	     74.46017539	      0.21947715	      1.94575479
      0.05084746	      4.20112511	     -3.31191841	     83.88563485	      0.27406246	      0.94485956	      0.56076546	      3.65982792	      1.37874147	    -12.21466674	     21.42565022	      0.37394814	     56.12267377	     18.68834938	      0.00000000	      2.17982061	     -1.75014932	     -4.78948841	     19.25104548	      0.33599413	     52.52449403	     -1.97176337	      0.00000000	      0.12404097	      0.06777191	      0.20023737	      0.23035648	      0.09013664	      0.21275221	      0.20378690	      0.16478063	      0.21275221	      0.14176642	      0.16478063	      0.17520770	      0.11518444	      0.13820049	      0.16269287	      0.07087701	      0.10497869	      0.15017803	      0.88601221	      0.76664943	      1.11366020	      0.00000000	      0.00000000	     13.74371833	      0.66105907	    -13.56589106	     10.33005381	     -6.85126532	     59.05194021	     38.01432686	     13.84429990	      0.55891139	      4.90462046	     17.86276906	     -8.37748807	     71.70107439	     39.85746235	     74.45173720	      0.55607449	      1.78218716
      0.06779661	      4.01720717	     -3.22308365	     83.07331478	      0.27469148	      0.94475814	      0.56019840	      3.44849336	      1.21977053	    -11.20981449	     21.25651649	      0.37099620	     56.09196665	     18.65340986	      0.00000000	      1.68073197	     -1.56108443	     -5.96157211	     18.80459026	      0.32820201	     52.35942016	     -1.47231983	      0.00000000	      0.10449840	      0.04423431	      0.36163049	      0.19406398	      0.05883163	      0.38423239	      0.17168042	      0.10755130	      0.38423239	      0.11943122	      0.10755130	      0.31642668	      0.09703722	      0.09020261	      0.29382477	      0.05971039	      0.06851895	      0.27122286	      0.74642163	      0.50038737	      2.01128028	      0.00000000	      0.00000000	     14.43481591	     -0.03284567	    -15.45152497	     10.04698065	     -6.95752633	     58.66860989	     38.93504499	     10.89497864	      0.96169363	      5.55387484	     17.38151727	     -8.70183962	     70.29565237	     40.29285481	     73.57035641	      2.45653433	      2.24868473
      0.08474576	      3.95169685	     -3.35692649	     82.95613020	      0.27432014	      0.94405371	      0.55970299	      3.36493125	      1.12304868	    -11.26326897	     21.03941520	      0.36720707	     56.01642277	     18.65282990	      0.00000000	      1.62964572	     -1.45849987	     -6.19485971	     18.61567229	      0.32490477	     52.14998518	     -1.40901127	      0.00000000	      0.11831963	      0.05015243	      0.33731209	      0.21973138	      0.06670273	      0.35839410	      0.19438731	      0.12194061	      0.35839410	      0.13522750	      0.12194061	      0.29514808	      0.10987160	      0.10227083	      0.27406608	      0.06760783	      0.07768611	      0.25298407	      0.84514525	      0.56733429	      1.87602867	      0.00000000	      0.00000000	     15.37704814	     -0.18729835	    -15.32568950	      9.91351510	     -7.26713460	     58.78232486	     39.98564217	     10.56967292	      1.28435768	      5.61418661	     17.10776792	     -9.19019824	     69.98456871	     41.03601946	     73.26700540	      2.85212823	      2.07627158
      0.10169492	      3.93617443	     -3.34803869	     82.66817383	      0.27424864	      0.94353946	      0.55931166	      3.25522425	      1.05253167	    -11.06718265	     21.05065042	      0.36740316	     55.91234555	     18.59440382	      0.00000000	      1.45232934	     -1.48441933	     -7.05290736	     18.54470686	      0.32366619	     52.12461959	     -0.70716994	      0.00000000	      0.11377883	      0.06119345	      0.28867655	      0.21129867	      0.08138729	      0.30671883	      0.18692725	      0.14878575	      0.30671883	      0.13003783	      0.14878575	      0.25259198	      0.10565503	      0.12478568	      0.23454970	      0.06501323	      0.09478865	      0.21650741	      0.81271083	      0.69223252	      1.60553236	      0.00000000	      0.00000000	     16.14349810	     -0.10192739	    -14.40447936	     10.21582708	     -7.47627157	     60.09501830	     40.74177446	      8.25685567	      1.46201117	      5.60823425	     15.84135014	     -9.47259419	     66.63490959	     41.63556314	     70.78708181	      4.90395023	      3.27656422
      0.11864407	      3.91137190	     -3.35084631	     82.62890301	      0.27385741	      0.94304331	      0.55906163	      3.13174612	      0.96219598	    -11.23512515	     20.98426278	      0.36624448	     55.84418573	     18.53733099	      0.00000000	      1.35751380	     -1.42454673	     -7.18579230	     18.46750602	      0.32231878	     51.94993745	     -0.66405898	      0.00000000	      0.11775053	      0.06202555	      0.27923376	      0.21867451	      0.08249399	      0.29668587	      0.19345235	      0.15080893	      0.29668587	      0.13457708	      0.15080893	      0.24432954	      0.10934314	      0.12648251	      0.22687743	      0.06728265	      0.09607758	      0.20942532	      0.84108026	      0.70164546	      1.55301442	      0.00000000	      0.00000000	     16.29493152	     -0.09850334	    -14.29430783	     10.15448618	     -7.72167068	     60.35860916	     41.51502519	      8.15099383	      1.73518165	      5.56191562	     15.61314152	     -9.74824911	     66.34213251	     42.09778851	     70.63954274	      5.15316360	      3.30817599
      0.13559322	      3.93908627	     -3.30259327	     82.59981514	      0.27357677	      0.94283593	      0.55887632	      3.00896906	      0.93592645	    -11.33699575	     20.96805730	      0.36596164	     55.78512232	     18.50071453	      0.00000000	      1.23978988	     -1.45086485	     -7.44859903	     18.39403187	      0.32103642	     51.89099001	     -0.36048575	      0.00000000	      0.12092968	      0.07224061	      0.14966348	      0.22457851	      0.09608001	      0.15901744	      0.19867538	      0.17564581	      0.15901744	      0.13821053	      0.17564581	      0.13095554	      0.11229530	      0.14731304	      0.12160157	      0.06909922	      0.11190070	      0.11224761	      0.86378863	      0.81720019	      0.83238335	      0.00000000	      0.00000000	     16.07590652	      0.29519957	    -12.84809372	     10.93251402	     -7.84749921	     63.35475910	     41.61529985	      6.85961890	      2.41328664	      4.21771969	     14.19272198	     -9.91398027	     62.60071533	     42.68191107	     71.59069731	      6.44246996	      5.03185331
      0.15254237	      3.84575812	     -3.27405590	     82.73694532	      0.27322947	      0.94291090	      0.55883117	      2.96291352	      0.78974965	    -11.62771228	     20.94862246	      0.36562244	     55.77514594	     18.54749811	      0.00000000	      1.21922608	     -1.36369823	     -7.57570868	     18.28006792	      0.31904737	     51.82333357	     -0.01207529	      0.00000000	      0.13122727	      0.06550186	      0.12302636	      0.24370217	      0.08711747	      0.13071551	      0.21559328	      0.15926121	      0.13071551	      0.14997965	      0.15926121	      0.10764807	      0.12185764	      0.13357139	      0.09995892	      0.07498326	      0.10146238	      0.09226977	      0.93734327	      0.74097010	      0.68423573	      0.00000000	      0.00000000	     15.48185815	      0.56119511	    -11.97394873	     10.63904705	     -7.74938330	     62.81513228	     41.54688560	      9.79544611	      2.60510693	      4.15608402	     13.92792501	    -10.09573384	     62.80164422	     42.88287124	     71.99052857	      5.23502163	      4.21633505
      0.16949153	      3.96392474	     -3.21412523	     82.85864366	      0.27261955	      0.94335224	      0.55918155	      2.90459868	      0.89443859	    -11.68457478	     20.88418497	      0.36449779	     55.68530853	     18.49177525	      0.00000000	      1.26349912	     -1.43502558	     -7.26938127	     18.28032051	      0.31905178	     51.77683893	     -0.16140150	      0.00000000	      0.11650894	      0.09025333	      0.06418559	      0.21636876	      0.12003693	      0.06819719	      0.19141254	      0.21944195	      0.06819719	      0.13315807	      0.21944195	      0.05616239	      0.10819020	      0.18404459	      0.05215079	      0.06657321	      0.13980241	      0.04813919	      0.83221172	      1.02096372	      0.35698101	      0.00000000	      0.00000000	     15.00142468	      0.90838256	    -10.62389287	     11.13374661	     -7.93228652	     64.58417326	     41.60946951	      8.53601607	      1.96601709	      3.64583706	     13.33436610	     -9.96070110	     61.75041300	     42.87729942	     73.13689309	      4.10570621	      3.47217581
